<svg width="1500" height="355" viewBox="0 0 1500 355" fill="none" xmlns="http://www.w3.org/2000/svg">
<path d="M0 258.076C29.765 279.682 59.5287 301.287 88.75 284.949C117.971 268.611 146.65 214.328 177.5 201.549C208.35 188.771 241.375 217.494 275 256.223C308.625 294.952 342.85 343.686 377.5 321.089C412.15 298.493 447.227 204.565 477.5 207.109C507.773 209.654 533.241 308.672 561.25 340.549C589.259 372.427 619.809 337.164 652.5 317.383C685.191 297.601 720.022 293.3 751.25 283.096C782.478 272.893 810.103 256.786 837.5 234.909C864.897 213.033 897.5 160.576 927.5 188.576C962.5 216.076 1006.63 299.931 1041.25 303.483C1075.87 307.035 1101.41 243.042 1131.25 210.816C1161.09 178.59 1197.21 173.057 1227 183.5C1256.79 193.944 1280.23 220.364 1311.25 245.103C1342.27 269.842 1380.11 308.272 1412.5 311C1444.89 313.728 1471.82 280.753 1550 258.076" stroke="white" stroke-opacity="0.5" stroke-width="2" stroke-linecap="round"/>
<path d="M-2 223.5C27.765 245.106 54.2787 274.838 83.5 258.5C112.721 242.162 150.65 183.585 181.5 170.807C212.35 158.028 245.375 186.751 279 225.48C312.625 264.209 340.35 309.237 375 286.64C409.65 264.043 451.227 168.262 481.5 170.807C511.773 173.351 537.491 277.623 565.5 309.5C593.509 341.377 630.809 299.782 663.5 280C696.191 260.218 724.022 262.557 755.25 252.353C786.478 242.15 814.103 226.043 841.5 204.167C868.897 182.29 892.566 142.275 928 164C963.434 185.725 1010.63 269.188 1045.25 272.74C1079.87 276.292 1105.41 212.299 1135.25 180.073C1165.09 147.848 1199.21 147.39 1229 157.833C1258.79 168.277 1284.23 189.621 1315.25 214.36C1346.27 239.099 1382.86 267.232 1415.25 269.96C1447.64 272.688 1475.82 250.011 1554 227.333" stroke="#84CC82" stroke-width="2" stroke-linecap="round"/>
<path d="M-1 190.5C28.765 212.106 59.7787 242.838 89 226.5C118.221 210.162 150.65 149.585 181.5 136.807C212.35 124.028 245.375 152.751 279 191.48C312.625 230.209 346.85 278.943 381.5 256.347C416.15 233.75 451.227 139.822 481.5 142.367C511.773 144.911 537.241 243.929 565.25 275.807C593.259 307.684 623.809 272.422 656.5 252.64C689.191 232.858 724.022 228.557 755.25 218.353C786.478 208.15 814.103 192.043 841.5 170.167C868.897 148.29 896.066 120.642 931.5 142.367C966.934 164.091 1010.63 235.188 1045.25 238.74C1079.87 242.292 1105.41 178.299 1135.25 146.073C1165.09 113.848 1199.21 113.39 1229 123.833C1258.79 134.277 1284.23 155.621 1315.25 180.36C1346.27 205.099 1382.86 233.232 1415.25 235.96C1447.64 238.688 1475.82 216.011 1554 193.333" stroke="white" stroke-opacity="0.4" stroke-width="2" stroke-linecap="round"/>
<path d="M-3.5 162.5C26.265 184.106 67.5287 213.545 96.75 197.207C125.971 180.869 154.65 126.585 185.5 113.807C216.35 101.028 249.375 129.751 283 168.48C316.625 207.209 350.85 255.943 385.5 233.347C420.15 210.75 455.227 116.822 485.5 119.367C515.773 121.911 541.241 220.929 569.25 252.807C597.259 284.684 627.809 249.422 660.5 229.64C693.191 209.858 728.022 205.557 759.25 195.353C790.478 185.15 818.103 169.043 845.5 147.167C872.897 125.29 900.066 97.6419 935.5 119.367C970.934 141.091 1014.63 212.188 1049.25 215.74C1083.87 219.292 1109.41 155.299 1139.25 123.073C1169.09 90.8476 1203.21 90.3899 1233 100.833C1262.79 111.277 1288.23 132.621 1319.25 157.36C1350.27 182.099 1386.86 210.232 1419.25 212.96C1451.64 215.688 1479.82 193.011 1558 170.333" stroke="white" stroke-opacity="0.3" stroke-width="2" stroke-linecap="round"/>
<path d="M-5 135.5C24.765 157.106 69.7787 191.838 99 175.5C128.221 159.162 159.65 102.328 190.5 89.5494C221.35 76.7707 254.375 105.494 288 144.223C321.625 182.952 355.85 231.686 390.5 209.089C425.15 186.493 460.227 92.5648 490.5 95.1094C520.773 97.654 546.241 196.672 574.25 228.549C602.259 260.427 632.809 225.164 665.5 205.383C698.191 185.601 733.022 181.3 764.25 171.096C795.478 160.893 823.103 144.786 850.5 122.909C877.897 101.033 905.066 73.3846 940.5 95.1094C975.934 116.834 1019.63 187.931 1054.25 191.483C1088.87 195.035 1114.41 131.042 1144.25 98.8161C1174.09 66.5903 1208.21 66.1325 1238 76.5761C1267.79 87.0196 1293.23 108.364 1324.25 133.103C1355.27 157.842 1391.86 185.975 1424.25 188.703C1456.64 191.431 1484.82 168.753 1563 146.076" stroke="white" stroke-opacity="0.2" stroke-width="2" stroke-linecap="round"/>
<path d="M-4.5 113.5C25.265 135.106 71.5 180 105.75 154.949C134.971 138.611 163.65 84.3281 194.5 71.5494C225.35 58.7707 258.375 87.4936 292 126.223C325.625 164.952 359.85 213.686 394.5 191.089C429.15 168.493 464.227 74.5648 494.5 77.1094C524.773 79.654 550.241 178.672 578.25 210.549C606.259 242.427 636.809 207.164 669.5 187.383C702.191 167.601 737.022 163.3 768.25 153.096C799.478 142.893 827.103 126.786 854.5 104.909C881.897 83.0326 909.066 55.3846 944.5 77.1094C979.934 98.8342 1023.63 169.931 1058.25 173.483C1092.87 177.035 1118.41 113.042 1148.25 80.8161C1178.09 48.5903 1212.21 48.1325 1242 58.5761C1271.79 69.0196 1297.23 90.3635 1328.25 115.103C1359.27 139.842 1395.86 167.975 1428.25 170.703C1460.64 173.431 1488.82 150.753 1567 128.076" stroke="white" stroke-opacity="0.1" stroke-width="2" stroke-linecap="round"/>
<path d="M-6.5 96C23.265 117.606 76.5 166.5 106.75 140.949C135.971 124.611 164.65 70.3281 195.5 57.5494C226.35 44.7707 259.375 73.4936 293 112.223C326.625 150.952 360.85 199.686 395.5 177.089C430.15 154.493 465.227 60.5648 495.5 63.1094C525.773 65.654 551.241 164.672 579.25 196.549C607.259 228.427 637.809 193.164 670.5 173.383C703.191 153.601 738.022 149.3 769.25 139.096C800.478 128.893 828.103 112.786 855.5 90.9094C882.897 69.0326 910.066 41.3846 945.5 63.1094C980.934 84.8342 1024.63 155.931 1059.25 159.483C1093.87 163.035 1119.41 99.0418 1149.25 66.8161C1179.09 34.5903 1213.21 34.1325 1243 44.5761C1272.79 55.0196 1298.23 76.3635 1329.25 101.103C1360.27 125.842 1396.86 153.975 1429.25 156.703C1461.64 159.431 1489.82 136.753 1568 114.076" stroke="white" stroke-opacity="0.05" stroke-width="2" stroke-linecap="round"/>
<path d="M-4.5 79C25.265 100.606 75 152 106.75 122.949C135.971 106.611 164.65 52.3281 195.5 39.5494C226.35 26.7707 259.375 55.4936 293 94.2227C326.625 132.952 360.85 181.686 395.5 159.089C430.15 136.493 465.227 42.5648 495.5 45.1094C525.773 47.654 551.241 146.672 579.25 178.549C607.259 210.427 637.809 175.164 670.5 155.383C703.191 135.601 738.022 131.3 769.25 121.096C800.478 110.893 828.103 94.7861 855.5 72.9094C882.897 51.0326 910.066 23.3846 945.5 45.1094C980.934 66.8342 1024.63 137.931 1059.25 141.483C1093.87 145.035 1119.41 81.0418 1149.25 48.8161C1179.09 16.5903 1213.21 16.1325 1243 26.5761C1272.79 37.0196 1298.23 58.3635 1329.25 83.1027C1360.27 107.842 1396.86 135.975 1429.25 138.703C1461.64 141.431 1489.82 118.753 1568 96.0761" stroke="white" stroke-opacity="0.03" stroke-width="2" stroke-linecap="round"/>
<path d="M-6 61.5C23.765 83.1062 69.25 135.551 103 110C132.221 93.6619 164.65 33.3281 195.5 20.5494C226.35 7.77067 259.375 36.4936 293 75.2227C326.625 113.952 360.85 162.686 395.5 140.089C430.15 117.493 465.227 23.5648 495.5 26.1094C525.773 28.654 551.241 127.672 579.25 159.549C607.259 191.427 637.809 156.164 670.5 136.383C703.191 116.601 738.022 112.3 769.25 102.096C800.478 91.8925 828.103 75.7861 855.5 53.9094C882.897 32.0326 910.066 4.38462 945.5 26.1094C980.934 47.8342 1024.63 118.931 1059.25 122.483C1093.87 126.035 1119.41 62.0418 1149.25 29.8161C1179.09 -2.4097 1213.21 -2.86746 1243 7.57607C1272.79 18.0196 1298.23 39.3635 1329.25 64.1027C1360.27 88.842 1396.86 116.975 1429.25 119.703C1461.64 122.431 1489.82 99.7535 1568 77.0761" stroke="white" stroke-opacity="0.02" stroke-width="2" stroke-linecap="round"/>
</svg>
