<svg width="187" height="568" viewBox="0 0 187 568" fill="none" xmlns="http://www.w3.org/2000/svg">
<path d="M23.8183 841.474C31.4812 824.304 39.1437 807.136 34.1355 791.276C29.1273 775.416 11.4478 760.865 7.65218 744.003C3.85655 727.14 13.944 707.965 27.3798 688.189C40.8156 668.414 57.5995 648.038 50.5851 629.317C43.5708 610.596 12.7583 593.529 14.0676 576.582C15.3769 559.635 48.8085 542.809 59.8723 526.346C70.9362 509.884 59.6327 493.785 53.5281 476.082C47.4235 458.379 46.5174 439.072 43.5869 421.93C40.6564 404.789 35.7013 389.813 28.817 375.117C21.9327 360.421 4.92237 343.634 14.7226 326.164C24.4319 305.92 53.0868 279.09 54.7983 259.693C56.5099 240.295 35.5424 227.749 25.2415 211.968C14.9406 196.187 13.643 176.19 17.5809 159.304C21.5189 142.419 30.6921 128.646 39.4196 110.695C48.1471 92.7436 61.5472 70.6237 62.9499 52.4928C64.3526 34.3619 53.7576 20.2201 47.3781 -22.7705" stroke="white" stroke-opacity="0.7" stroke-linecap="round"/>
<path d="M13.6196 840.058C21.2825 822.889 30.2371 810.764 25.2289 794.905C20.2207 779.045 1.24905 759.45 -2.54657 742.588C-6.34219 725.725 3.74523 706.55 17.181 686.774C30.6169 666.998 46.065 650.346 39.0506 631.625C32.0363 612.904 0.704044 592.261 2.01338 575.315C3.32271 558.368 38.5112 541.263 49.575 524.8C60.6389 508.338 47.3245 488.643 41.2198 470.94C35.1152 453.237 36.3186 437.657 33.3882 420.515C30.4577 403.374 25.5025 388.398 18.6182 373.702C11.7339 359.006 -1.26007 346.87 6.52854 326.537C14.3171 306.204 42.888 277.675 44.5996 258.278C46.3111 238.88 25.3436 226.334 15.0427 210.553C4.74182 194.772 5.1078 175.755 9.04577 158.87C12.9837 141.985 20.4934 127.231 29.2209 109.28C37.9484 91.3286 47.8931 70.1787 49.2958 52.0478C50.6985 33.917 43.5589 18.8051 37.1793 -24.1855" stroke="#84CC82" stroke-linecap="round"/>
<path d="M2.27316 840.96C9.93601 823.791 17.5985 806.622 12.5903 790.763C7.58214 774.903 -10.0974 760.352 -13.893 743.489C-17.6886 726.627 -7.6012 707.451 5.83461 687.676C19.2704 667.9 36.0543 647.525 29.04 628.804C22.0256 610.083 -8.7869 593.016 -7.47757 576.069C-6.16824 559.122 27.2633 542.295 38.3271 525.833C49.391 509.371 38.0876 493.272 31.9829 475.569C25.8783 457.865 24.9722 438.558 22.0417 421.417C19.1112 404.276 14.1561 389.3 7.27182 374.604C0.387523 359.908 -8.42625 345.492 -0.637645 325.159C7.15096 304.826 31.5416 278.577 33.2531 259.179C34.9647 239.782 13.9972 227.236 3.69631 211.455C-6.6046 195.673 -6.23863 176.657 -2.30066 159.772C1.63732 142.887 9.14699 128.133 17.8745 110.182C26.6019 92.2302 36.5466 71.0803 37.9493 52.9494C39.352 34.8186 32.2125 19.7067 25.8329 -23.284" stroke="white" stroke-opacity="0.6" stroke-linecap="round"/>
<path d="M-5.34171 839.34C2.32114 822.171 9.98366 805.002 4.97546 789.142C-0.0327327 773.282 -17.7123 758.731 -21.5079 741.869C-25.3035 725.007 -15.2161 705.831 -1.78026 686.055C11.6556 666.28 28.4394 645.904 21.4251 627.183C14.4107 608.463 -16.4018 591.395 -15.0924 574.448C-13.7831 557.502 19.6484 540.675 30.7123 524.213C41.7761 507.75 30.4727 491.651 24.3681 473.948C18.2634 456.245 17.3573 436.938 14.4268 419.797C11.4964 402.656 6.54123 387.68 -0.343062 372.984C-7.22736 358.287 -16.0411 343.872 -8.25252 323.539C-0.463923 303.206 23.9267 276.956 25.6383 257.559C27.3498 238.161 6.38235 225.616 -3.91856 209.834C-14.2195 194.053 -13.8535 175.036 -9.91554 158.151C-5.97756 141.266 1.53211 126.513 10.2596 108.561C18.9871 90.6098 28.9317 69.4599 30.3344 51.3291C31.7372 33.1982 24.5976 18.0864 18.218 -24.9043" stroke="white" stroke-opacity="0.5" stroke-linecap="round"/>
<path d="M-13.3609 837.195C-5.69801 820.026 1.96451 802.857 -3.04369 786.998C-8.05188 771.138 -25.7314 756.587 -29.527 739.724C-33.3226 722.862 -23.2352 703.686 -9.79941 683.911C3.6364 664.135 20.4203 643.76 13.4059 625.039C6.3916 606.318 -24.4209 589.25 -23.1116 572.304C-21.8023 555.357 11.6293 538.53 22.6931 522.068C33.757 505.606 22.4535 489.507 16.3489 471.803C10.2443 454.1 9.33818 434.793 6.4077 417.652C3.47722 400.511 -1.47792 385.535 -8.36221 370.839C-15.2465 356.143 -24.0603 341.727 -16.2717 321.394C-8.48307 301.061 15.9075 274.812 17.6191 255.414C19.3307 236.017 -1.63681 223.471 -11.9377 207.69C-22.2386 191.908 -21.8727 172.892 -17.9347 156.007C-13.9967 139.121 -6.48705 124.368 2.24043 106.417C10.9679 88.4651 20.9126 67.3153 22.3153 49.1844C23.718 31.0535 16.5784 15.9417 10.1989 -27.049" stroke="white" stroke-opacity="0.35" stroke-linecap="round"/>
<path d="M-19.307 835.442C-11.6442 818.273 -3.98165 801.104 -8.98985 785.245C-13.9981 769.385 -31.6776 754.834 -35.4732 737.971C-39.2688 721.109 -29.1814 701.933 -15.7456 682.158C-2.30976 662.382 14.4741 642.007 7.45977 623.286C0.445428 604.565 -30.3671 587.498 -29.0578 570.551C-27.7484 553.604 5.68309 536.777 16.747 520.315C27.8108 503.853 16.5074 487.754 10.4027 470.051C4.29812 452.347 3.39201 433.04 0.46153 415.899C-2.46895 398.758 -7.42408 383.782 -14.3084 369.086C-21.1927 354.39 -30.0064 339.974 -22.2178 319.641C-14.4292 299.308 9.96137 273.059 11.6729 253.661C13.3845 234.264 -7.58298 221.718 -17.8839 205.937C-28.1848 190.155 -27.8188 171.139 -23.8809 154.254C-19.9429 137.369 -12.4332 122.615 -3.70573 104.664C5.02175 86.7122 14.9664 65.5624 16.3691 47.4315C17.7718 29.3006 10.6323 14.1888 4.2527 -28.8019" stroke="white" stroke-opacity="0.2" stroke-linecap="round"/>
<path d="M-23.9639 835.256C-16.301 818.087 -8.63852 800.918 -13.6467 785.058C-18.6549 769.199 -36.3344 754.647 -40.1301 737.785C-43.9257 720.923 -33.8383 701.747 -20.4024 681.971C-6.96663 662.196 9.81725 641.82 2.80291 623.1C-4.21144 604.379 -35.024 587.311 -33.7146 570.365C-32.4053 553.418 1.02622 536.591 12.0901 520.129C23.154 503.666 11.8505 487.568 5.74587 469.864C-0.358757 452.161 -1.26487 432.854 -4.19535 415.713C-7.12583 398.572 -12.081 383.596 -18.9653 368.9C-25.8496 354.204 -34.6633 339.788 -26.8747 319.455C-19.0861 299.122 5.30449 272.872 7.01606 253.475C8.72763 234.077 -12.2399 221.532 -22.5408 205.75C-32.8417 189.969 -32.4757 170.953 -28.5377 154.067C-24.5998 137.182 -17.0901 122.429 -8.36262 104.477C0.364859 86.526 10.3095 65.3761 11.7122 47.2453C13.115 29.1144 5.97539 14.0026 -0.404193 -28.9881" stroke="white" stroke-opacity="0.15" stroke-linecap="round"/>
<path d="M-29.971 835.733C-22.3081 818.564 -14.6456 801.395 -19.6538 785.536C-24.662 769.676 -42.3415 755.125 -46.1372 738.262C-49.9328 721.4 -39.8453 702.224 -26.4095 682.449C-12.9737 662.673 3.81018 642.298 -3.20417 623.577C-10.2185 604.856 -41.031 587.789 -39.7217 570.842C-38.4124 553.895 -4.98085 537.068 6.08302 520.606C17.1469 504.144 5.84342 488.045 -0.261202 470.342C-6.36582 452.638 -7.27193 433.331 -10.2024 416.19C-13.1329 399.049 -18.088 384.073 -24.9723 369.377C-31.8566 354.681 -40.6704 340.265 -32.8818 319.932C-25.0932 299.599 -0.702567 273.35 1.009 253.952C2.72057 234.555 -18.2469 222.009 -28.5478 206.228C-38.8487 190.446 -38.4828 171.43 -34.5448 154.545C-30.6068 137.66 -23.0972 122.906 -14.3697 104.955C-5.64219 87.0032 4.30248 65.8534 5.70519 47.7225C7.1079 29.5916 -0.0316581 14.4798 -6.41124 -28.5109" stroke="white" stroke-opacity="0.05" stroke-linecap="round"/>
<path d="M-36.3117 836.237C-28.6488 819.068 -20.9863 801.899 -25.9945 786.039C-31.0027 770.18 -48.6822 755.629 -52.4778 738.766C-56.2735 721.904 -46.186 702.728 -32.7502 682.953C-19.3144 663.177 -2.53053 642.802 -9.54487 624.081C-16.5592 605.36 -47.3717 588.292 -46.0624 571.346C-44.7531 554.399 -11.3216 537.572 -0.257689 521.11C10.8062 504.648 -0.497287 488.549 -6.60191 470.845C-12.7065 453.142 -13.6126 433.835 -16.5431 416.694C-19.4736 399.553 -24.4287 384.577 -31.313 369.881C-38.1973 355.185 -47.0111 340.769 -39.2225 320.436C-31.4339 300.103 -7.04327 273.854 -5.33171 254.456C-3.62014 235.059 -24.5876 222.513 -34.8885 206.732C-45.1894 190.95 -44.8235 171.934 -40.8855 155.049C-36.9475 138.164 -29.4379 123.41 -20.7104 105.459C-11.9829 87.5072 -2.03823 66.3573 -0.635515 48.2264C0.767196 30.0956 -6.37236 14.9837 -12.7519 -28.0069" stroke="white" stroke-opacity="0.02" stroke-linecap="round"/>
</svg>
