<svg width="1500" height="577" viewBox="0 0 1500 577" fill="none" xmlns="http://www.w3.org/2000/svg">
<path d="M-49.9919 266.78C-19.9109 283.615 10.1688 300.451 39.1423 286.765C68.1158 273.079 95.9831 228.87 126.638 218.018C157.293 207.166 190.739 229.669 224.934 260.211C259.128 290.754 294.072 329.336 328.38 310.514C362.688 291.691 396.364 215.465 426.669 216.954C456.975 218.442 483.91 297.647 512.388 322.78C540.865 347.913 570.886 318.975 603.278 302.454C635.67 285.933 670.431 281.829 701.502 273.042C732.572 264.255 759.953 250.785 787.021 232.676C814.089 214.567 845.906 171.756 876.317 193.733C911.72 215.214 957.088 281.873 991.755 284.092C1026.42 286.311 1051.01 234.348 1080.36 207.866C1109.72 181.385 1145.75 176.265 1175.69 184.119C1205.63 191.972 1229.46 212.798 1260.84 232.132C1292.22 251.466 1330.63 281.69 1363.05 283.287C1395.48 284.884 1421.91 257.854 1499.74 238.163" stroke="white" stroke-opacity="0.3" stroke-width="2" stroke-linecap="round"/>
<path d="M-46.4493 241.969C-16.3684 258.805 4.52666 279.265 33.5002 265.579C62.4737 251.893 99.5256 204.059 130.181 193.207C160.835 182.356 194.282 204.858 228.476 235.4C262.671 265.943 291.06 301.662 325.369 282.84C359.677 264.018 399.824 186.18 430.129 187.669C460.435 189.157 487.698 272.584 516.176 297.717C544.653 322.85 581.329 288.692 613.721 272.171C646.113 255.65 673.974 257.018 705.044 248.231C736.115 239.444 763.496 225.974 790.564 207.865C817.631 189.757 840.702 157.122 876.452 173.948C912.203 190.775 960.631 257.062 995.298 259.281C1029.96 261.5 1054.55 209.537 1083.91 183.056C1113.26 156.574 1147.37 155.576 1177.31 163.429C1207.25 171.283 1233 187.987 1264.38 207.321C1295.77 226.655 1332.77 248.616 1365.19 250.213C1397.62 251.811 1425.46 233.043 1503.29 213.352" stroke="#84CC82" stroke-width="2" stroke-linecap="round"/>
<path d="M-46.9545 214.611C-16.8736 231.446 13.2061 248.282 42.1796 234.596C71.1531 220.91 99.0204 176.701 129.675 165.849C160.33 154.997 193.776 177.5 227.971 208.042C262.166 238.585 297.109 277.167 331.417 258.345C365.726 239.522 399.402 163.296 429.707 164.784C460.012 166.273 486.948 245.478 515.425 270.611C543.903 295.744 573.924 266.806 606.315 250.285C638.707 233.764 673.469 229.66 704.539 220.873C735.61 212.086 762.991 198.616 790.058 180.507C817.126 162.398 843.88 139.65 879.63 156.476C915.381 173.303 960.126 229.704 994.793 231.923C1029.46 234.142 1054.05 182.179 1083.4 155.697C1112.75 129.216 1146.87 128.218 1176.8 136.071C1206.74 143.925 1232.5 160.629 1263.88 179.963C1295.26 199.297 1332.27 221.258 1364.69 222.855C1397.11 224.452 1424.95 205.685 1502.78 185.994" stroke="white" stroke-opacity="0.25" stroke-width="2" stroke-linecap="round"/>
<path d="M-43.2969 196.03C-13.216 212.866 16.8637 229.701 45.8372 216.015C74.8107 202.329 102.678 158.12 133.333 147.269C163.988 136.417 197.434 158.919 231.629 189.461C265.823 220.004 300.767 258.586 335.075 239.764C369.383 220.942 403.059 144.715 433.364 146.204C463.67 147.692 490.605 226.897 519.083 252.03C547.56 277.163 577.581 248.225 609.973 231.704C642.365 215.183 677.126 211.079 708.197 202.292C739.267 193.505 766.648 180.035 793.716 161.927C820.784 143.818 847.537 121.069 883.288 137.896C919.038 154.722 963.783 211.123 998.45 213.342C1033.12 215.561 1057.71 163.598 1087.06 137.117C1116.41 110.635 1150.53 109.637 1180.46 117.49C1210.4 125.344 1236.16 142.048 1267.54 161.382C1298.92 180.716 1335.92 202.677 1368.35 204.274C1400.77 205.872 1428.61 187.104 1506.44 167.413" stroke="white" stroke-opacity="0.2" stroke-width="2" stroke-linecap="round"/>
<path d="M-38.6583 176.419C-8.57732 193.255 21.5024 210.09 50.4759 196.404C79.4494 182.718 107.317 138.509 137.972 127.658C168.626 116.806 202.073 139.308 236.267 169.85C270.462 200.393 305.405 238.975 339.714 220.153C374.022 201.331 407.698 125.104 438.003 126.593C468.308 128.081 495.244 207.286 523.721 232.419C552.199 257.552 582.22 228.614 614.612 212.093C647.003 195.572 681.765 191.468 712.835 182.681C743.906 173.894 771.287 160.424 798.355 142.316C825.423 124.207 852.176 101.458 887.926 118.285C923.677 135.111 968.422 191.512 1003.09 193.731C1037.76 195.95 1062.34 143.987 1091.7 117.506C1121.05 91.0243 1155.16 90.0258 1185.1 97.8793C1215.04 105.733 1240.79 122.437 1272.18 141.771C1303.56 161.105 1340.56 183.066 1372.98 184.663C1405.41 186.261 1433.25 167.493 1511.08 147.802" stroke="white" stroke-opacity="0.15" stroke-width="2" stroke-linecap="round"/>
<path d="M-34.9263 161.861C-4.84538 178.697 25.2343 195.532 54.2078 181.846C83.1813 168.16 111.049 123.952 141.704 113.1C172.358 102.248 205.805 124.75 239.999 155.293C274.194 185.835 309.137 224.418 343.446 205.595C377.754 186.773 411.43 110.547 441.735 112.035C472.04 113.524 498.976 192.728 527.453 217.861C555.931 242.994 585.952 214.057 618.344 197.536C650.735 181.015 685.497 176.911 716.567 168.124C747.638 159.337 775.019 145.867 802.087 127.758C829.154 109.649 855.908 86.9006 891.658 103.727C927.409 120.554 972.154 176.955 1006.82 179.174C1041.49 181.393 1066.08 129.429 1095.43 102.948C1124.78 76.4668 1158.9 75.4684 1188.83 83.3218C1218.77 91.1753 1244.53 107.88 1275.91 127.214C1307.29 146.547 1344.29 168.509 1376.72 170.106C1409.14 171.703 1436.98 152.936 1514.81 133.245" stroke="white" stroke-opacity="0.1" stroke-width="2" stroke-linecap="round"/>
<path d="M-34.1345 150.578C-4.05358 167.413 26.0261 184.249 54.9996 170.563C83.9731 156.877 111.84 112.668 142.495 101.816C173.15 90.9645 206.596 113.467 240.791 144.009C274.986 174.552 309.929 213.134 344.237 194.312C378.546 175.49 412.222 99.263 442.527 100.752C472.832 102.24 499.768 181.445 528.245 206.578C556.723 231.711 586.744 202.773 619.135 186.252C651.527 169.731 686.289 165.627 717.359 156.84C748.43 148.053 775.811 134.583 802.878 116.474C829.946 98.3655 856.7 75.6169 892.45 92.4436C928.201 109.27 972.946 165.671 1007.61 167.89C1042.28 170.109 1066.87 118.146 1096.22 91.6645C1125.57 65.1832 1159.69 64.1848 1189.62 72.0382C1219.56 79.8917 1245.32 96.5963 1276.7 115.93C1308.08 135.264 1345.09 157.225 1377.51 158.822C1409.93 160.42 1437.77 141.652 1515.6 121.961" stroke="white" stroke-opacity="0.05" stroke-width="2" stroke-linecap="round"/>
<path d="M-34.402 136.094C-4.32103 152.93 25.7587 169.765 54.7322 156.079C83.7057 142.393 111.573 98.1847 142.228 87.3328C172.883 76.4808 206.329 98.983 240.524 129.526C274.718 160.068 309.662 198.65 343.97 179.828C378.278 161.006 411.954 84.7793 442.259 86.268C472.564 87.7566 499.5 166.961 527.978 192.094C556.455 217.227 586.476 188.289 618.868 171.768C651.26 155.248 686.021 151.143 717.092 142.357C748.162 133.57 775.543 120.1 802.611 101.991C829.679 83.8819 856.432 61.1333 892.183 77.96C927.933 94.7866 972.678 151.188 1007.35 153.407C1042.01 155.626 1066.6 103.662 1095.95 77.1808C1125.31 50.6995 1159.42 49.7011 1189.36 57.5546C1219.29 65.4081 1245.05 82.1127 1276.43 101.446C1307.81 120.78 1344.82 142.741 1377.24 144.339C1409.66 145.936 1437.5 127.168 1515.33 107.478" stroke="white" stroke-opacity="0.03" stroke-width="2" stroke-linecap="round"/>
<path d="M-34.6843 120.806C-4.60332 137.642 25.4764 154.477 54.4499 140.791C83.4234 127.105 111.291 82.8964 141.946 72.0444C172.6 61.1924 206.047 83.6947 240.241 114.237C274.436 144.78 309.379 183.362 343.688 164.54C377.996 145.718 411.672 69.491 441.977 70.9796C472.282 72.4683 499.218 151.673 527.695 176.806C556.173 201.939 586.194 173.001 618.586 156.48C650.977 139.959 685.739 135.855 716.809 127.068C747.88 118.281 775.261 104.811 802.329 86.7025C829.397 68.5935 856.15 45.845 891.9 62.6716C927.651 79.4983 972.396 135.899 1007.06 138.118C1041.73 140.337 1066.32 88.3738 1095.67 61.8925C1125.02 35.4112 1159.14 34.4128 1189.07 42.2662C1219.01 50.1197 1244.77 66.8243 1276.15 86.1581C1307.53 105.492 1344.54 127.453 1376.96 129.05C1409.38 130.648 1437.22 111.88 1515.05 92.1892" stroke="white" stroke-opacity="0.02" stroke-width="2" stroke-linecap="round"/>
</svg>
